# AST/ASF file generated using VICON BodyLanguage
# -----------------------------------------------
:version 1.10
:name VICON
:units
  mass 1.0
  length 0.45
  angle deg
:documentation
   .ast/.asf automatically generated from VICON data using
   VICON BodyBuilder and BodyLanguage model FoxedUp or BRILLIANT.MOD
:root
   order TX TY TZ RX RY RZ
   axis XYZ
   position 0 0 0  
   orientation 0 0 0 
:bonedata
  begin
     id 1 
     name lhipjoint
     direction 0.700308 -0.549349 0.455834 
     length 2.59063 
     axis 0 0 0  XYZ
  end
  begin
     id 2 
     name lfemur
     direction 0.34202 -0.939693 0  
     length 6.31066  
     axis 0 0 20  XYZ
    dof rx ry rz
    limits (-160.0 20.0)
           (-70.0 70.0)
           (-60.0 70.0)
  end
  begin
     id 3 
     name ltibia
     direction 0.34202 -0.939693 0   
     length 7.36093   
     axis 0 0 20   XYZ
    dof rx
    limits (-10.0 170.0)
  end
  begin
     id 4 
     name lfoot
     direction 0.0905332 -0.248738 0.96433   
     length 2.0233   
     axis -90 7.62852e-016 20   XYZ
    dof rx rz
    limits (-45.0 90.0)
           (-70.0 20.0)
  end
  begin
     id 5 
     name ltoes
     direction 1.53573e-011 -4.21855e-011 1   
     length 1.01524   
     axis -90 7.62852e-016 20   XYZ
    dof rx
    limits (-90.0 20.0)
  end
  begin
     id 6 
     name rhipjoint
     direction -0.61416 -0.607328 0.503944   
     length 2.34332  
     axis 0 0 0  XYZ 
  end
  begin
     id 7 
     name rfemur
     direction -0.34202 -0.939693 0   
     length 6.58548   
     axis 0 0 -20   XYZ
    dof rx ry rz
    limits (-160.0 20.0)
           (-70.0 70.0)
           (-70.0 60.0)
  end
  begin
     id 8 
     name rtibia
     direction -0.34202 -0.939693 0   
     length 7.20707   
     axis 0 0 -20   XYZ
    dof rx
    limits (-10.0 170.0)
 end
 begin
     id 9 
     name rfoot
     direction -0.136772 -0.375778 0.916561   
     length 1.92184  
     axis -90 -7.62852e-016 -20   XYZ
    dof rx rz
    limits (-45.0 90.0)
           (-20.0 70.0)
  end
  begin
     id 10 
     name rtoes
     direction -1.53535e-011 -4.21828e-011 1   
     length 0.951089   
     axis -90 -7.62852e-016 -20   XYZ
    dof rx
    limits (-90.0 20.0)
  end
  begin
     id 11 
     name lowerback
     direction -0.0444974 0.988086 -0.147332   
     length 1.9609   
     axis 0 0 0   XYZ
    dof rx ry rz
    limits (-20.0 45.0)
           (-30.0 30.0)
           (-30.0 30.0)
  end
  begin
     id 12 
     name upperback
     direction 0.00613146 0.999513 0.0306081   
     length 1.94944   
     axis 0 0 0   XYZ
    dof rx ry rz
    limits (-20.0 45.0)
           (-30.0 30.0)
           (-30.0 30.0)
  end
  begin
     id 13 
     name thorax
     direction 0.0254621 0.994518 0.101418   
     length 2.0119   
     axis 0 0 0   XYZ
    dof rx ry rz
    limits (-20.0 45.0)
           (-30.0 30.0)
           (-30.0 30.0)
  end
  begin
     id 14 
     name lowerneck
     direction 0.0168698 0.977854 0.208608   
     length 1.6375   
     axis 0 0 0   XYZ
    dof rx ry rz
    limits (-20.0 45.0)
           (-30.0 30.0)
           (-30.0 30.0)
  end
  begin
     id 15 
     name upperneck
     direction -0.0283988 0.989338 -0.142843   
     length 1.6851   
     axis 0 0 0   XYZ
    dof rx ry rz
    limits (-20.0 45.0)
           (-30.0 30.0)
           (-30.0 30.0)
  end
  begin
     id 16
     name head
     direction -0.0129422 0.99741 -0.0707489  
     length 1.69029  
     axis 0 0 0   XYZ
    dof rx ry rz
    limits (-20.0 45.0)
           (-30.0 30.0)
           (-30.0 30.0)
  end
  begin
     id 17 
     name lclavicle
     direction 0.820295 0.564628 -0.0911715  
     length 3.16484  
     axis 0 0 0   XYZ
    dof ry rz
    limits (-20.0 10.0)
           (0.0 20.0)
  end
  begin
     id 18 
     name lhumerus
     direction 1 -4.48969e-011 1.00186e-027   
     length 5.17853   
     axis 180 -30 -90   XYZ
    dof rx ry rz
    limits (-60.0 90.0)
           (-90.0 90.0)
           (-90.0 90.0)
  end
  begin
     id 19
     name lradius
     direction 1 -4.48966e-011 -1.52922e-027   
     length 3.40399   
     axis 180 -30 -90   XYZ
    dof rx
    limits (-10.0 170.0)
  end
  begin
     id 20
     name lwrist
     direction 1 -4.48981e-011 -3.80893e-027   
     length 1.70199   
     axis 1.1049e-015 90 90   XYZ
    dof ry
    limits (-180.0 0.0)
 end
  begin
     id 21 
     name lhand
     direction 1 -4.48957e-011 -7.61786e-027   
     length 0.708964   
     axis 4.86085e-015 90 90   XYZ
    dof rx rz
    limits (-90.0 90.0)
           (-45.0 45.0)
  end
  begin
     id 22 
     name lfingers
     direction 1 -4.48929e-011 -1.52357e-026   
     length 0.571585   
     axis 9.7217e-015 90 90   XYZ
    dof rx
    limits (0.0 90.0)
  end
  begin
     id 23
     name lthumb
     direction 0.707107 -6.34905e-011 0.707107   
     length 0.820685   
     axis -90 45 2.85299e-015   XYZ
    dof rx rz
    limits (-45.0 45.0)
           (-45.0 45.0)
  end
  begin
     id 24 
     name rclavicle
     direction -0.858602 0.463947 -0.218075   
     length 3.35137  
     axis 0 0 0   XYZ 
    dof ry rz
    limits (-10.0 20.0)
           (-20.0 0.0)
  end
  begin
     id 25 
     name rhumerus
     direction -1 -4.48969e-011 -1.98511e-027  
     length 5.42351   
     axis 180 30 90   XYZ
    dof rx ry rz
    limits (-90.0 60.0)
           (-90.0 90.0)
           (-90.0 90.0)
  end
  begin
     id 26 
     name rradius
     direction -1 -4.48961e-011 -2.82624e-027   
     length 3.42066   
     axis 180 30 90   XYZ
    dof rx
    limits (-10.0 170.0)
  end
  begin
     id 27 
     name rwrist
     direction -1 -4.48966e-011 -3.80893e-027   
     length 1.71033   
     axis 1.1049e-015 -90 -90   XYZ
    dof ry
    limits (-180.0 0.0)
  end
  begin
     id 28
     name rhand
     direction -1 -4.48964e-011 -7.61786e-027   
     length 0.743608   
     axis 4.86085e-015 -90 -90   XYZ
    dof rx rz
    limits (-90.0 90.0)
           (-45.0 45.0)
  end
  begin
     id 29
     name rfingers
     direction -1 -4.48961e-011 -1.52357e-026   
     length 0.599516   
     axis 9.7217e-015 -90 -90   XYZ
    dof rx
    limits (0.0 90.0)
  end
  begin
     id 30
     name rthumb
     direction -0.707107 -6.34913e-011 0.707107   
     length 0.860789   
     axis -90 -45 -2.85299e-015   XYZ
    dof rx rz
    limits (-45.0 45.0)
           (-45.0 45.0)
  end
:hierarchy
  begin
    root lhipjoint rhipjoint lowerback
    lhipjoint lfemur
    lfemur ltibia
    ltibia lfoot
    lfoot ltoes
    rhipjoint rfemur
    rfemur rtibia
    rtibia rfoot
    rfoot rtoes
    lowerback upperback
    upperback thorax
    thorax lowerneck lclavicle rclavicle
    lowerneck upperneck
    upperneck head
    lclavicle lhumerus
    lhumerus lradius
    lradius lwrist
    lwrist lhand lthumb
    lhand lfingers
    rclavicle rhumerus
    rhumerus rradius
    rradius rwrist
    rwrist rhand rthumb
    rhand rfingers
  end

#!OML:ASF E:\mmandel\Project 1\Capture day 1\Session 2\Subject.ASF
:FULLY-SPECIFIED
:DEGREES
311
root -3.51692 2.05398 2.72499 142.508 60.573 -116.102
lowerback 12.7369 -0.526659 -6.08225
upperback 6.89562 -0.996125 1.63547
thorax 0.284552 -0.533942 5.26832
lowerneck -12.6133 -5.05694 -5.59061
upperneck 44.5587 -1.65553 -5.52607
head 19.3719 -1.37928 -1.68857
rclavicle 1.11319e-013 -1.08934e-013
rhumerus 24.9633 75.2152 -77.6509
rradius 56.9916
rwrist -20.8788
rhand 3.02478 32.2733
rfingers 7.12502
rthumb 28.4842 4.42201
lclavicle 1.11319e-013 -1.08934e-013
lhumerus 20.4161 13.5326 12.6748
lradius 16.3382
lwrist -27.1092
lhand -8.22427 -14.9381
lfingers 7.12502
lthumb 17.693 14.2769
rfemur -33.889 -12.5195 23.6267
rtibia 103.847
rfoot 2.99347 -11.5754
rtoes 1.92306
lfemur -22.4934 19.5575 5.755
ltibia 44.2141
lfoot 10.2904 16.0234
ltoes 26.4616
312
root -3.52224 2.04779 2.74602 142.086 61.1362 -116.518
lowerback 12.8342 -0.447555 -6.07339
upperback 6.96481 -0.88594 1.6459
thorax 0.290983 -0.476446 5.26257
lowerneck -12.7004 -5.05855 -5.66747
upperneck 44.7064 -1.67468 -5.38777
head 19.4998 -1.37588 -1.61882
rclavicle -5.725e-014 1.83677e-013
rhumerus 24.0023 74.9491 -78.3394
rradius 56.7881
rwrist -20.9544
rhand 3.07442 32.2839
rfingers 7.12502
rthumb 28.5317 4.44057
lclavicle -5.725e-014 1.83677e-013
lhumerus 20.4061 13.4889 12.6389
lradius 16.0505
lwrist -26.9524
lhand -8.49729 -14.725
lfingers 7.12502
lthumb 17.4303 14.5135
rfemur -33.9107 -12.8623 23.5909
rtibia 103.828
rfoot 3.00472 -11.5603
rtoes 2.94381
lfemur -21.9285 19.2116 6.14811
ltibia 43.8202
lfoot 10.1543 16.7587
ltoes 27.9856
313
root -3.54047 2.04093 2.76663 141.571 61.5351 -117.055
lowerback 12.8671 -0.397431 -6.13564
upperback 7.04521 -0.819833 1.63052
thorax 0.351567 -0.445547 5.27387
lowerneck -12.7968 -5.05554 -5.64679
upperneck 44.7874 -1.6676 -5.38042
head 19.5816 -1.36702 -1.624
rclavicle -4.77083e-014 1.03368e-014
rhumerus 22.8251 74.6143 -79.2001
rradius 56.62
rwrist -20.9195
rhand 3.16697 32.1401
rfingers 7.12502
rthumb 28.6201 4.3116
lclavicle -4.77083e-014 1.03368e-014
lhumerus 20.2573 13.5617 12.7417
lradius 16.0554
lwrist -26.9937
lhand -8.78318 -14.4654
lfingers 7.12502
lthumb 17.1551 14.7973
rfemur -33.8074 -13.3012 23.3317
rtibia 103.74
rfoot 3.06095 -11.4615
rtoes 3.30815
lfemur -21.3616 18.5593 6.33835
ltibia 43.304
lfoot 10.2115 17.4891
ltoes 28.8776
314
root -3.5291 2.0216 2.77445 141.196 61.9398 -117.287
lowerback 13.0868 -0.384787 -5.95632
upperback 7.18858 -0.778996 1.59079
thorax 0.374347 -0.416224 5.12743
lowerneck -12.8181 -5.02347 -5.73877
upperneck 44.675 -1.75915 -5.05914
head 19.5144 -1.38176 -1.4626
rclavicle -2.8625e-014 -2.14687e-014
rhumerus 21.7979 74.1269 -79.9911
rradius 56.5015
rwrist -20.8748
rhand 3.1974 32.0482
rfingers 7.12502
rthumb 28.6492 4.22466
lclavicle -2.8625e-014 -2.14687e-014
lhumerus 20.177 13.76 12.8285
lradius 16.098
lwrist -27.117
lhand -8.79708 -14.4818
lfingers 7.12502
lthumb 17.1418 14.7821
rfemur -33.7104 -13.8378 23.1392
rtibia 103.798
rfoot 3.25 -11.3446
rtoes 3.29324
lfemur -20.5409 18.0209 6.52387
ltibia 42.7609
lfoot 10.2121 17.884
ltoes 28.6242
315
root -3.55109 2.01536 2.80643 140.758 62.3517 -117.705
lowerback 13.1476 -0.360972 -5.98798
upperback 7.36118 -0.737738 1.57349
thorax 0.520767 -0.398766 5.12211
lowerneck -12.9481 -4.97313 -5.93641
upperneck 44.6074 -1.78997 -4.68549
head 19.5165 -1.38359 -1.25086
rclavicle -3.49861e-014 1.08139e-013
rhumerus 21.5103 73.7209 -80.0294
rradius 56.4459
rwrist -20.91
rhand 3.17581 31.934
rfingers 7.12502
rthumb 28.6285 4.10702
lclavicle -3.49861e-014 1.08139e-013
lhumerus 19.5873 14.6651 13.3628
lradius 16.5485
lwrist -27.8247
lhand -8.80277 -14.3621
lfingers 7.12502
lthumb 17.1363 14.9022
rfemur -33.5244 -14.2649 23.0356
rtibia 103.627
rfoot 3.40839 -11.3275
rtoes 3.10375
lfemur -19.9619 17.1605 6.76683
ltibia 42.3551
lfoot 9.40588 19.1106
ltoes 30.6042
316
root -3.54924 2.0063 2.82419 140.905 62.9669 -117.662
lowerback 13.0394 -0.338774 -5.75611
upperback 7.42963 -0.669719 1.66164
thorax 0.637358 -0.362214 5.07323
lowerneck -13.0822 -4.95794 -5.98282
upperneck 44.728 -1.78147 -4.56582
head 19.6397 -1.36857 -1.18916
rclavicle 3.18055e-015 -3.89618e-014
rhumerus 21.1841 73.3661 -80.0655
rradius 56.2581
rwrist -21.0138
rhand 3.1066 31.7515
rfingers 7.12502
rthumb 28.5624 3.91339
lclavicle 3.18055e-015 -3.89618e-014
lhumerus 19.4425 14.961 13.5609
lradius 16.5523
lwrist -28.0251
lhand -8.97129 -14.3103
lfingers 7.12502
lthumb 16.9741 14.968
rfemur -33.7096 -14.5993 23.3066
rtibia 103.654
rfoot 2.98034 -11.4702
rtoes 3.38171
lfemur -19.6737 16.7585 7.30438
ltibia 42.1833
lfoot 8.87493 19.7525
ltoes 31.7576
317
root -3.52241 1.98931 2.83022 141.557 63.702 -116.939
lowerback 13.077 -0.377378 -5.2252
upperback 7.5029 -0.654349 1.85137
thorax 0.681494 -0.340349 4.97001
lowerneck -13.1042 -4.95554 -6.03544
upperneck 44.7522 -1.78604 -4.50746
head 19.6654 -1.37117 -1.15323
rclavicle 8.5875e-014 -1.1291e-013
rhumerus 20.5818 73.0445 -80.3937
rradius 55.9766
rwrist -21.1297
rhand 3.0017 31.6429
rfingers 7.12502
rthumb 28.4622 3.78792
lclavicle 8.5875e-014 -1.1291e-013
lhumerus 19.2215 15.1506 13.6403
lradius 16.7079
lwrist -28.3402
lhand -8.83289 -14.6178
lfingers 7.12502
lthumb 17.1073 14.649
rfemur -33.8825 -14.9976 23.8483
rtibia 103.806
rfoot 1.66909 -11.7679
rtoes 4.97187
lfemur -19.5855 16.8521 8.25623
ltibia 42.2195
lfoot 9.29268 19.3527
ltoes 31.3678
